<svg xmlns="http://www.w3.org/2000/svg" xmlns:xlink="http://www.w3.org/1999/xlink" width="150" zoomAndPan="magnify" viewBox="0 0 112.5 112.499997" height="150" preserveAspectRatio="xMidYMid meet" version="1.0"><defs><clipPath id="ea04662594"><path d="M 17.1875 31 L 58 31 L 58 90 L 17.1875 90 Z M 17.1875 31 " clip-rule="nonzero"/></clipPath><clipPath id="9de2015c04"><path d="M 17.1875 25 L 95.1875 25 L 95.1875 110.609375 L 17.1875 110.609375 Z M 17.1875 25 " clip-rule="nonzero"/></clipPath><clipPath id="6a2b4ac895"><path d="M 17.1875 2 L 48 2 L 48 90 L 17.1875 90 Z M 17.1875 2 " clip-rule="nonzero"/></clipPath></defs><path fill="#ffa000" d="M 68.566406 41.570312 L 57.765625 51.636719 L 47.738281 31.390625 L 52.925781 19.742188 C 54.277344 17.378906 56.382812 17.40625 57.695312 19.742188 Z M 68.566406 41.570312 " fill-opacity="1" fill-rule="nonzero"/><g clip-path="url(#ea04662594)"><path fill="#f57f17" d="M 47.738281 31.390625 L 57.765625 51.636719 L 17.390625 89.242188 Z M 47.738281 31.390625 " fill-opacity="1" fill-rule="nonzero"/></g><g clip-path="url(#9de2015c04)"><path fill="#ffca28" d="M 80.382812 26.1875 C 82.3125 24.332031 84.308594 24.964844 84.820312 27.597656 L 95.328125 88.742188 L 60.492188 109.683594 C 59.277344 110.359375 56.039062 110.648438 56.039062 110.648438 C 56.039062 110.648438 53.09375 110.296875 51.96875 109.636719 L 17.390625 89.242188 Z M 80.382812 26.1875 " fill-opacity="1" fill-rule="nonzero"/></g><g clip-path="url(#6a2b4ac895)"><path fill="#ffa000" d="M 47.738281 31.390625 L 17.390625 89.242188 L 30.90625 4.691406 C 31.40625 2.058594 32.90625 1.804688 34.242188 4.128906 Z M 47.738281 31.390625 " fill-opacity="1" fill-rule="nonzero"/></g></svg>