<svg xmlns="http://www.w3.org/2000/svg" xmlns:xlink="http://www.w3.org/1999/xlink" width="150" zoomAndPan="magnify" viewBox="0 0 112.5 112.499997" height="150" preserveAspectRatio="xMidYMid meet" version="1.0"><defs><clipPath id="8cadfae5c2"><path d="M 30 1 L 83 1 L 83 111.855469 L 30 111.855469 Z M 30 1 " clip-rule="nonzero"/></clipPath></defs><g clip-path="url(#8cadfae5c2)"><path fill="#01ec64" d="M 65.949219 13.378906 C 61.304688 7.871094 57.304688 2.273438 56.484375 1.113281 C 56.464844 1.09375 56.441406 1.074219 56.417969 1.066406 C 56.390625 1.054688 56.363281 1.046875 56.335938 1.046875 C 56.308594 1.046875 56.28125 1.054688 56.253906 1.066406 C 56.226562 1.074219 56.203125 1.09375 56.183594 1.113281 C 55.367188 2.273438 51.367188 7.871094 46.722656 13.378906 C 6.855469 64.214844 53.003906 98.523438 53.003906 98.523438 L 53.390625 98.78125 C 53.734375 104.074219 54.59375 111.695312 54.59375 111.695312 L 58.035156 111.695312 C 58.035156 111.695312 58.894531 104.121094 59.238281 98.78125 L 59.625 98.480469 C 59.667969 98.523438 105.816406 64.214844 65.949219 13.378906 Z M 56.3125 97.75 C 56.3125 97.75 54.25 95.984375 53.691406 95.082031 L 53.691406 94.992188 L 56.183594 39.636719 C 56.183594 39.464844 56.441406 39.464844 56.441406 39.636719 L 58.9375 94.992188 L 58.9375 95.082031 C 58.378906 95.984375 56.3125 97.75 56.3125 97.75 Z M 56.3125 97.75 " fill-opacity="1" fill-rule="nonzero"/></g></svg>