<svg xmlns="http://www.w3.org/2000/svg" xmlns:xlink="http://www.w3.org/1999/xlink" width="150" zoomAndPan="magnify" viewBox="0 0 112.5 112.499997" height="150" preserveAspectRatio="xMidYMid meet" version="1.0"><defs><clipPath id="3186aa8a25"><path d="M 7.574219 1.324219 L 105 1.324219 L 105 110.824219 L 7.574219 110.824219 Z M 7.574219 1.324219 " clip-rule="nonzero"/></clipPath></defs><g clip-path="url(#3186aa8a25)"><path fill="#539e43" d="M 56.324219 110.8125 C 54.8125 110.8125 53.402344 110.410156 52.09375 109.710938 L 38.695312 101.785156 C 36.679688 100.6875 37.6875 100.285156 38.292969 100.085938 C 41.011719 99.179688 41.515625 98.980469 44.335938 97.375 C 44.636719 97.175781 45.039062 97.277344 45.34375 97.476562 L 55.617188 103.589844 C 56.019531 103.792969 56.523438 103.792969 56.828125 103.589844 L 97.019531 80.433594 C 97.425781 80.230469 97.625 79.832031 97.625 79.328125 L 97.625 33.101562 C 97.625 32.601562 97.425781 32.199219 97.019531 32 L 56.828125 8.9375 C 56.425781 8.734375 55.921875 8.734375 55.617188 8.9375 L 15.425781 32 C 15.019531 32.199219 14.820312 32.699219 14.820312 33.101562 L 14.820312 79.328125 C 14.820312 79.726562 15.019531 80.230469 15.421875 80.433594 L 26.402344 86.746094 C 32.347656 89.753906 36.074219 86.246094 36.074219 82.738281 L 36.074219 37.113281 C 36.074219 36.511719 36.578125 35.910156 37.285156 35.910156 L 42.421875 35.910156 C 43.027344 35.910156 43.628906 36.410156 43.628906 37.113281 L 43.628906 82.738281 C 43.628906 90.660156 39.296875 95.273438 31.742188 95.273438 C 29.425781 95.273438 27.613281 95.273438 22.476562 92.761719 L 11.898438 86.746094 C 9.277344 85.246094 7.667969 82.4375 7.667969 79.429688 L 7.667969 33.203125 C 7.667969 30.195312 9.277344 27.386719 11.898438 25.882812 L 52.09375 2.71875 C 54.609375 1.316406 58.039062 1.316406 60.554688 2.71875 L 100.75 25.882812 C 103.371094 27.386719 104.980469 30.195312 104.980469 33.203125 L 104.980469 79.429688 C 104.980469 82.4375 103.371094 85.242188 100.75 86.746094 L 60.554688 109.910156 C 59.246094 110.511719 57.734375 110.808594 56.324219 110.808594 Z M 68.714844 79.027344 C 51.085938 79.027344 47.457031 71.003906 47.457031 64.183594 C 47.457031 63.582031 47.960938 62.980469 48.667969 62.980469 L 53.90625 62.980469 C 54.511719 62.980469 55.011719 63.382812 55.011719 63.984375 C 55.816406 69.300781 58.136719 71.90625 68.816406 71.90625 C 77.277344 71.90625 80.902344 70 80.902344 65.488281 C 80.902344 62.882812 79.894531 60.976562 66.703125 59.675781 C 55.71875 58.570312 48.871094 56.164062 48.871094 47.441406 C 48.871094 39.320312 55.71875 34.503906 67.203125 34.503906 C 80.097656 34.503906 86.445312 38.917969 87.25 48.542969 C 87.25 48.84375 87.148438 49.144531 86.949219 49.445312 C 86.746094 49.648438 86.445312 49.847656 86.140625 49.847656 L 80.902344 49.847656 C 80.402344 49.847656 79.894531 49.445312 79.796875 48.945312 C 78.589844 43.429688 75.464844 41.625 67.203125 41.625 C 57.933594 41.625 56.828125 44.835938 56.828125 47.242188 C 56.828125 50.148438 58.136719 51.050781 70.628906 52.65625 C 83.019531 54.261719 88.863281 56.5625 88.863281 65.1875 C 88.761719 74.011719 81.507812 79.027344 68.714844 79.027344 Z M 68.714844 79.027344 " fill-opacity="1" fill-rule="nonzero"/></g></svg>