<svg xmlns="http://www.w3.org/2000/svg" xmlns:xlink="http://www.w3.org/1999/xlink" width="150" zoomAndPan="magnify" viewBox="0 0 112.5 112.499997" height="150" preserveAspectRatio="xMidYMid meet" version="1.0"><defs><clipPath id="cf84f5efb0"><path d="M 1.503906 7 L 111 7 L 111 105 L 1.503906 105 Z M 1.503906 7 " clip-rule="nonzero"/></clipPath></defs><g clip-path="url(#cf84f5efb0)"><path fill="#00d8ff" d="M 91.496094 39.136719 C 90.328125 38.734375 89.15625 38.363281 87.972656 38.023438 C 88.171875 37.210938 88.351562 36.410156 88.515625 35.621094 C 91.183594 22.671875 89.4375 12.238281 83.484375 8.804688 C 77.773438 5.511719 68.4375 8.945312 59.003906 17.152344 C 58.074219 17.964844 57.167969 18.796875 56.28125 19.65625 C 55.683594 19.085938 55.082031 18.527344 54.464844 17.980469 C 44.582031 9.203125 34.675781 5.503906 28.726562 8.945312 C 23.019531 12.25 21.332031 22.058594 23.734375 34.328125 C 23.972656 35.546875 24.242188 36.753906 24.542969 37.957031 C 23.140625 38.355469 21.785156 38.777344 20.492188 39.230469 C 8.902344 43.273438 1.503906 49.605469 1.503906 56.175781 C 1.503906 62.957031 9.449219 69.765625 21.515625 73.890625 C 22.496094 74.222656 23.480469 74.53125 24.476562 74.816406 C 24.152344 76.109375 23.867188 77.414062 23.617188 78.722656 C 21.328125 90.785156 23.113281 100.359375 28.804688 103.640625 C 34.679688 107.03125 44.542969 103.546875 54.148438 95.152344 C 54.925781 94.46875 55.6875 93.765625 56.429688 93.046875 C 57.390625 93.972656 58.378906 94.875 59.390625 95.746094 C 68.691406 103.753906 77.878906 106.984375 83.5625 103.695312 C 89.433594 100.292969 91.339844 90.007812 88.863281 77.492188 C 88.667969 76.511719 88.449219 75.535156 88.207031 74.566406 C 88.902344 74.363281 89.582031 74.148438 90.242188 73.929688 C 102.792969 69.773438 110.953125 63.050781 110.953125 56.175781 C 110.953125 49.582031 103.316406 43.207031 91.496094 39.136719 Z M 88.773438 69.492188 C 88.175781 69.6875 87.558594 69.878906 86.933594 70.066406 C 85.550781 65.679688 83.679688 61.015625 81.390625 56.195312 C 83.574219 51.492188 85.371094 46.886719 86.71875 42.53125 C 87.839844 42.855469 88.925781 43.195312 89.972656 43.558594 C 100.101562 47.042969 106.28125 52.199219 106.28125 56.175781 C 106.28125 60.40625 99.605469 65.898438 88.773438 69.492188 Z M 84.277344 78.402344 C 85.375 83.933594 85.527344 88.9375 84.804688 92.851562 C 84.152344 96.363281 82.839844 98.707031 81.21875 99.648438 C 77.769531 101.644531 70.394531 99.046875 62.4375 92.199219 C 61.5 91.390625 60.582031 90.550781 59.6875 89.691406 C 62.769531 86.316406 65.851562 82.394531 68.863281 78.039062 C 74.152344 77.570312 79.152344 76.800781 83.683594 75.753906 C 83.902344 76.628906 84.101562 77.511719 84.277344 78.402344 Z M 38.816406 99.300781 C 35.449219 100.492188 32.761719 100.527344 31.140625 99.589844 C 27.6875 97.597656 26.253906 89.910156 28.210938 79.597656 C 28.445312 78.378906 28.710938 77.167969 29.011719 75.960938 C 33.492188 76.953125 38.457031 77.667969 43.757812 78.097656 C 46.789062 82.359375 49.960938 86.277344 53.15625 89.707031 C 52.476562 90.367188 51.78125 91.007812 51.070312 91.628906 C 46.824219 95.34375 42.566406 97.976562 38.816406 99.300781 Z M 23.03125 69.464844 C 17.691406 67.640625 13.285156 65.269531 10.265625 62.679688 C 7.550781 60.355469 6.179688 58.046875 6.179688 56.175781 C 6.179688 52.1875 12.121094 47.101562 22.03125 43.648438 C 23.234375 43.226562 24.492188 42.832031 25.796875 42.460938 C 27.167969 46.917969 28.964844 51.578125 31.132812 56.289062 C 28.9375 61.070312 27.113281 65.804688 25.730469 70.3125 C 24.824219 70.050781 23.921875 69.769531 23.03125 69.464844 Z M 28.320312 33.429688 C 26.265625 22.917969 27.632812 14.984375 31.070312 12.996094 C 34.730469 10.875 42.828125 13.898438 51.363281 21.476562 C 51.917969 21.972656 52.464844 22.476562 53.003906 22.992188 C 49.824219 26.410156 46.679688 30.296875 43.679688 34.535156 C 38.53125 35.011719 33.605469 35.777344 29.074219 36.804688 C 28.796875 35.6875 28.542969 34.5625 28.320312 33.433594 Z M 75.535156 45.09375 C 74.464844 43.242188 73.355469 41.417969 72.207031 39.617188 C 75.699219 40.058594 79.042969 40.644531 82.1875 41.363281 C 81.242188 44.386719 80.066406 47.546875 78.683594 50.789062 C 77.671875 48.871094 76.621094 46.96875 75.535156 45.09375 Z M 56.28125 26.335938 C 58.4375 28.671875 60.597656 31.28125 62.722656 34.113281 C 58.414062 33.910156 54.097656 33.910156 49.785156 34.109375 C 51.914062 31.304688 54.089844 28.699219 56.28125 26.335938 Z M 36.90625 45.125 C 35.832031 46.988281 34.800781 48.875 33.816406 50.785156 C 32.453125 47.554688 31.289062 44.378906 30.335938 41.3125 C 33.460938 40.613281 36.789062 40.042969 40.261719 39.609375 C 39.097656 41.421875 37.980469 43.257812 36.90625 45.125 Z M 40.359375 73.074219 C 36.773438 72.671875 33.394531 72.128906 30.273438 71.449219 C 31.238281 68.328125 32.429688 65.085938 33.820312 61.785156 C 34.808594 63.699219 35.84375 65.585938 36.921875 67.449219 C 38.03125 69.367188 39.179688 71.242188 40.359375 73.074219 Z M 56.410156 86.34375 C 54.195312 83.949219 51.984375 81.304688 49.824219 78.460938 C 51.921875 78.542969 54.058594 78.582031 56.230469 78.582031 C 58.460938 78.582031 60.664062 78.535156 62.835938 78.4375 C 60.703125 81.332031 58.550781 83.984375 56.410156 86.34375 Z M 78.726562 61.617188 C 80.191406 64.953125 81.425781 68.179688 82.402344 71.246094 C 79.230469 71.972656 75.804688 72.554688 72.191406 72.988281 C 73.351562 71.152344 74.46875 69.296875 75.554688 67.417969 C 76.652344 65.507812 77.710938 63.574219 78.726562 61.617188 Z M 71.503906 65.082031 C 69.84375 67.960938 68.09375 70.789062 66.253906 73.554688 C 62.917969 73.792969 59.574219 73.910156 56.230469 73.90625 C 52.824219 73.90625 49.507812 73.800781 46.320312 73.59375 C 44.429688 70.832031 42.644531 68.003906 40.96875 65.105469 C 39.300781 62.226562 37.742188 59.285156 36.300781 56.285156 C 37.742188 53.285156 39.292969 50.34375 40.957031 47.460938 L 40.953125 47.460938 C 42.617188 44.578125 44.386719 41.757812 46.261719 39.011719 C 49.515625 38.765625 52.855469 38.636719 56.226562 38.636719 L 56.230469 38.636719 C 59.617188 38.636719 62.960938 38.765625 66.214844 39.011719 C 68.070312 41.757812 69.828125 44.566406 71.488281 47.4375 C 73.15625 50.3125 74.730469 53.242188 76.207031 56.21875 C 74.742188 59.226562 73.175781 62.183594 71.503906 65.082031 Z M 81.148438 12.855469 C 84.8125 14.96875 86.238281 23.496094 83.9375 34.675781 C 83.789062 35.390625 83.625 36.117188 83.445312 36.851562 C 78.902344 35.804688 73.972656 35.023438 68.808594 34.539062 C 65.800781 30.257812 62.6875 26.363281 59.558594 22.992188 C 60.378906 22.199219 61.214844 21.429688 62.074219 20.679688 C 70.15625 13.648438 77.707031 10.871094 81.148438 12.855469 Z M 56.230469 46.398438 C 61.625 46.398438 66.003906 50.773438 66.003906 56.175781 C 66.003906 61.574219 61.625 65.949219 56.230469 65.949219 C 50.832031 65.949219 46.453125 61.574219 46.453125 56.175781 C 46.453125 50.773438 50.832031 46.398438 56.230469 46.398438 Z M 56.230469 46.398438 " fill-opacity="1" fill-rule="nonzero"/></g></svg>