<svg xmlns="http://www.w3.org/2000/svg" xmlns:xlink="http://www.w3.org/1999/xlink" width="150" zoomAndPan="magnify" viewBox="0 0 112.5 112.499997" height="150" preserveAspectRatio="xMidYMid meet" version="1.0"><defs><clipPath id="b1255ad499"><path d="M 2.074219 9.457031 L 110.074219 9.457031 L 110.074219 103.207031 L 2.074219 103.207031 Z M 2.074219 9.457031 " clip-rule="nonzero"/></clipPath><clipPath id="b2a31f3b3c"><path d="M 23 9.457031 L 89 9.457031 L 89 66 L 23 66 Z M 23 9.457031 " clip-rule="nonzero"/></clipPath></defs><g clip-path="url(#b1255ad499)"><path fill="#41b883" d="M 88.476562 9.527344 L 110.074219 9.527344 L 56.074219 103.136719 L 2.074219 9.527344 L 43.386719 9.527344 L 56.074219 31.234375 L 68.496094 9.527344 Z M 88.476562 9.527344 " fill-opacity="1" fill-rule="nonzero"/><path fill="#41b883" d="M 2.074219 9.527344 L 56.074219 103.136719 L 110.074219 9.527344 L 88.476562 9.527344 L 56.074219 65.691406 L 23.40625 9.527344 Z M 2.074219 9.527344 " fill-opacity="1" fill-rule="nonzero"/></g><g clip-path="url(#b2a31f3b3c)"><path fill="#35495e" d="M 23.40625 9.527344 L 56.074219 65.964844 L 88.476562 9.527344 L 68.496094 9.527344 L 56.074219 31.234375 L 43.386719 9.527344 Z M 23.40625 9.527344 " fill-opacity="1" fill-rule="nonzero"/></g></svg>